<svg width="162" height="37" viewBox="0 0 162 37" fill="none" xmlns="http://www.w3.org/2000/svg"><path d="M.5.5h161v25.2929L150.793 36.5H.5V.5z" stroke="#fff"/><path d="M150.5 36V25.5H161" stroke="#fff"/><path d="M12 25.848v-.504l.48-.144c.336-.112.552-.256.648-.432.096-.192.144-.456.144-.792V11.832c0-.32-.048-.568-.144-.744-.096-.192-.304-.344-.624-.456L12 10.488v-.504h5.952v.504l-.456.144c-.304.112-.512.264-.624.456-.096.192-.144.456-.144.792v13.248h3.528c.544 0 .952-.136 1.224-.408.272-.272.528-.664.768-1.176l.888-1.992h.672l-.24 4.296H12zM30.9129 26.184c-1.184 0-2.224-.248-3.12-.744-.88-.496-1.568-1.2-2.064-2.112-.48-.912-.72-2-.72-3.264 0-1.264.256-2.352.768-3.264.528-.912 1.232-1.608 2.112-2.088.896-.496 1.904-.744 3.024-.744s2.12.248 3 .744c.896.48 1.6 1.176 2.112 2.088.528.896.792 1.984.792 3.264 0 1.264-.248 2.36-.744 3.288-.48.912-1.16 1.616-2.04 2.112-.88.48-1.92.72-3.12.72zm0-.672c.576 0 1.04-.152 1.392-.456.368-.32.632-.872.792-1.656.16-.784.24-1.88.24-3.288 0-1.424-.08-2.528-.24-3.312-.16-.8-.424-1.352-.792-1.656-.352-.32-.816-.48-1.392-.48s-1.04.16-1.392.48c-.352.304-.616.856-.792 1.656-.16.784-.24 1.888-.24 3.312 0 1.408.08 2.504.24 3.288.176.784.44 1.336.792 1.656.352.304.816.456 1.392.456zM37.9207 25.848v-.456l.3601-.12c.32-.08.5359-.216.6479-.408.128-.192.1921-.448.1921-.768v-7.032c-.016-.352-.0801-.616-.1921-.792-.112-.192-.3279-.32-.6479-.384l-.3601-.096v-.432l3.9121-1.392.288.264.216 2.112v.168c.24-.448.544-.864.912-1.248s.7679-.696 1.1999-.936c.432-.24.8641-.36 1.2961-.36.608 0 1.064.16 1.368.48.304.32.4559.728.4559 1.224 0 .544-.1519.96-.4559 1.248-.304.272-.672.408-1.104.408-.64 0-1.1921-.288-1.6561-.864l-.048-.048c-.16-.192-.3439-.296-.5519-.312-.192-.032-.384.064-.576.288-.16.16-.312.352-.456.576-.128.208-.248.456-.36.744V24c0 .304.0639.56.1919.768.128.192.3441.328.6481.408l.7199.216v.456h-6zM53.9989 13.968c1.008 0 1.872.208 2.592.624.72.416 1.272.992 1.656 1.728.4.72.6 1.552.6 2.496 0 .208-.008.408-.024.6-.016.176-.048.344-.096.504h-7.224c.016 1.648.32 2.832.912 3.552.608.72 1.488 1.08 2.64 1.08.8 0 1.448-.128 1.944-.384.496-.272.952-.648 1.368-1.128l.384.36c-.48.88-1.136 1.568-1.968 2.064-.816.48-1.792.72-2.928.72s-2.136-.24-3-.72c-.864-.48-1.544-1.168-2.04-2.064-.48-.912-.72-2-.72-3.264 0-1.312.28-2.424.84-3.336.576-.912 1.312-1.608 2.208-2.088.912-.496 1.864-.744 2.856-.744zm-.12.696c-.464 0-.872.136-1.224.408-.336.256-.608.72-.816 1.392-.192.656-.304 1.584-.336 2.784h4.296c.176-1.616.112-2.784-.192-3.504-.304-.72-.88-1.08-1.728-1.08zM60.0692 25.848v-.48l.528-.144c.256-.08.424-.192.504-.336.08-.16.128-.368.144-.624v-4.752-1.344c0-.368-.008-.8-.024-1.296 0-.272-.04-.48-.12-.624-.08-.16-.256-.272-.528-.336l-.504-.12v-.432l3.888-1.392.288.264.168 1.608c.56-.512 1.184-.952 1.872-1.32.688-.368 1.392-.552 2.112-.552.8 0 1.424.16 1.872.48.448.32.792.808 1.032 1.464.608-.608 1.28-1.08 2.016-1.416.736-.352 1.464-.528 2.184-.528 1.088 0 1.904.272 2.448.816.544.544.816 1.4.816 2.568v6.936c0 .512.224.832.672.96l.456.12v.48h-5.4v-.48l.432-.12c.432-.144.648-.472.648-.984v-7.032c0-.688-.128-1.152-.384-1.392-.24-.256-.64-.384-1.2-.384-.432 0-.84.088-1.224.264-.384.176-.808.448-1.272.816.096.48.144 1.032.144 1.656v6.096c.016.272.064.488.144.648.096.144.272.248.528.312l.408.12v.48h-5.424v-.48l.504-.144c.256-.08.424-.192.504-.336.096-.16.144-.368.144-.624v-7.008c0-.656-.12-1.12-.36-1.392-.24-.272-.648-.408-1.224-.408-.736 0-1.528.352-2.376 1.056v7.776c0 .528.224.848.672.96l.408.12v.48h-5.496zM80.9297 25.848v-.504l.384-.12c.336-.128.56-.296.672-.504.128-.208.192-.488.192-.84.016-.912.024-1.824.024-2.736V17.496c0-.928-.008-1.848-.024-2.76v-2.784c0-.384-.056-.672-.168-.864-.112-.208-.344-.368-.696-.48l-.384-.12v-.504h6.768c1.92 0 3.312.36 4.176 1.08.864.704 1.296 1.6 1.296 2.688 0 .832-.304 1.584-.912 2.256-.608.656-1.672 1.128-3.192 1.416 1.76.192 3.032.648 3.816 1.368.784.72 1.176 1.6 1.176 2.64 0 .512-.112 1.032-.336 1.56-.224.512-.608.984-1.152 1.416-.528.432-1.248.784-2.16 1.056-.912.256-2.064.384-3.456.384h-6.024zm4.68-8.592h1.128c1.088 0 1.872-.24 2.352-.72.496-.496.744-1.336.744-2.52 0-1.232-.224-2.096-.672-2.592-.448-.496-1.152-.744-2.112-.744h-1.44v6.576zm0 7.896h1.32c1.2 0 2.096-.296 2.688-.888.592-.592.888-1.544.888-2.856 0-1.264-.288-2.152-.864-2.664-.56-.528-1.488-.792-2.784-.792h-1.248v7.2zM101.249 26.184c-1.184 0-2.2241-.248-3.1201-.744-.88-.496-1.568-1.2-2.064-2.112-.48-.912-.72-2-.72-3.264 0-1.264.256-2.352.768-3.264.528-.912 1.232-1.608 2.112-2.088.896-.496 1.9041-.744 3.0241-.744 1.12 0 2.12.248 3 .744.896.48 1.6 1.176 2.112 2.088.528.896.792 1.984.792 3.264 0 1.264-.248 2.36-.744 3.288-.48.912-1.16 1.616-2.04 2.112-.88.48-1.92.72-3.12.72zm0-.672c.576 0 1.04-.152 1.392-.456.368-.32.632-.872.792-1.656.16-.784.24-1.88.24-3.288 0-1.424-.08-2.528-.24-3.312-.16-.8-.424-1.352-.792-1.656-.352-.32-.816-.48-1.392-.48s-1.04.16-1.3921.48c-.352.304-.616.856-.792 1.656-.16.784-.24 1.888-.24 3.312 0 1.408.08 2.504.24 3.288.176.784.44 1.336.792 1.656.3521.304.8161.456 1.3921.456zM114.374 26.184c-1.184 0-2.224-.248-3.12-.744-.88-.496-1.568-1.2-2.064-2.112-.48-.912-.72-2-.72-3.264 0-1.264.256-2.352.768-3.264.528-.912 1.232-1.608 2.112-2.088.896-.496 1.904-.744 3.024-.744s2.12.248 3 .744c.896.48 1.6 1.176 2.112 2.088.528.896.792 1.984.792 3.264 0 1.264-.248 2.36-.744 3.288-.48.912-1.16 1.616-2.04 2.112-.88.48-1.92.72-3.12.72zm0-.672c.576 0 1.04-.152 1.392-.456.368-.32.632-.872.792-1.656.16-.784.24-1.88.24-3.288 0-1.424-.08-2.528-.24-3.312-.16-.8-.424-1.352-.792-1.656-.352-.32-.816-.48-1.392-.48s-1.04.16-1.392.48c-.352.304-.616.856-.792 1.656-.16.784-.24 1.888-.24 3.312 0 1.408.08 2.504.24 3.288.176.784.44 1.336.792 1.656.352.304.816.456 1.392.456zM121.312 25.848v-.456l.361-.12c.544-.16.816-.552.816-1.176V11.664c0-.32-.064-.56-.192-.72-.128-.176-.353-.304-.673-.384l-.312-.096v-.456l4.2-1.008.313.216-.096 3.384v11.496c0 .64.272 1.04.816 1.2l.336.096v.456h-5.569zm8.785 0l-4.368-6 4.272-3.936c.208-.176.327-.368.359-.576.032-.224-.104-.376-.408-.456l-.384-.096v-.456h3.744v.456l-.695.168c-.352.096-.64.232-.864.408-.224.16-.488.376-.792.648l-2.664 2.472 4.103 5.592c.256.336.488.6.696.792.208.176.489.328.841.456l.239.072v.456h-4.079zM139.034 26.184c-.768 0-1.464-.088-2.088-.264a7.8453 7.8453 0 01-1.752-.696v-2.832h.648l.72 1.368c.304.592.648 1.032 1.032 1.32.4.288.904.432 1.512.432.752 0 1.352-.16 1.8-.48.448-.336.672-.784.672-1.344 0-.512-.168-.928-.504-1.248-.336-.32-.936-.616-1.8-.888l-1.056-.336c-.944-.288-1.696-.72-2.256-1.296-.544-.592-.816-1.328-.816-2.208 0-.688.184-1.312.552-1.872.368-.576.904-1.032 1.608-1.368.704-.336 1.56-.504 2.568-.504.656 0 1.256.08 1.8.24.56.144 1.104.352 1.632.624l-.144 2.568h-.624l-.744-1.368c-.256-.512-.52-.864-.792-1.056-.256-.208-.656-.312-1.2-.312-.576 0-1.088.152-1.536.456-.432.288-.648.696-.648 1.224 0 .496.184.904.552 1.224.368.304.96.592 1.776.864l1.032.312c1.168.368 2 .856 2.496 1.464s.744 1.336.744 2.184c0 1.136-.456 2.056-1.368 2.76-.896.688-2.168 1.032-3.816 1.032z" fill="#fff"/></svg>