<svg width="183" height="39" viewBox="0 0 183 39" fill="none" xmlns="http://www.w3.org/2000/svg">
<path d="M171.5 38V27.5H182" stroke="white"/>
<path d="M13.644 28V27.412L14.204 27.244C14.596 27.1133 14.848 26.9453 14.96 26.74C15.072 26.516 15.128 26.208 15.128 25.816V11.648C15.128 11.2747 15.072 10.9853 14.96 10.78C14.848 10.556 14.6054 10.3787 14.232 10.248L13.644 10.08V9.49199H20.588V10.08L20.056 10.248C19.7014 10.3787 19.4587 10.556 19.328 10.78C19.216 11.004 19.16 11.312 19.16 11.704V27.16H23.276C23.9107 27.16 24.3867 27.0013 24.704 26.684C25.0214 26.3667 25.32 25.9093 25.6 25.312L26.636 22.988H27.42L27.14 28H13.644Z" fill="white"/>
<path d="M35.7091 28.392C34.3278 28.392 33.1145 28.1027 32.0691 27.524C31.0425 26.9453 30.2398 26.124 29.6611 25.06C29.1011 23.996 28.8211 22.7267 28.8211 21.252C28.8211 19.7773 29.1198 18.508 29.7171 17.444C30.3331 16.38 31.1545 15.568 32.1811 15.008C33.2265 14.4293 34.4025 14.14 35.7091 14.14C37.0158 14.14 38.1825 14.4293 39.2091 15.008C40.2545 15.568 41.0758 16.38 41.6731 17.444C42.2891 18.4893 42.5971 19.7587 42.5971 21.252C42.5971 22.7267 42.3078 24.0053 41.7291 25.088C41.1691 26.152 40.3758 26.9733 39.3491 27.552C38.3225 28.112 37.1091 28.392 35.7091 28.392ZM35.7091 27.608C36.3811 27.608 36.9225 27.4307 37.3331 27.076C37.7625 26.7027 38.0705 26.0587 38.2571 25.144C38.4438 24.2293 38.5371 22.9507 38.5371 21.308C38.5371 19.6467 38.4438 18.3587 38.2571 17.444C38.0705 16.5107 37.7625 15.8667 37.3331 15.512C36.9225 15.1387 36.3811 14.952 35.7091 14.952C35.0371 14.952 34.4958 15.1387 34.0851 15.512C33.6745 15.8667 33.3665 16.5107 33.1611 17.444C32.9745 18.3587 32.8811 19.6467 32.8811 21.308C32.8811 22.9507 32.9745 24.2293 33.1611 25.144C33.3665 26.0587 33.6745 26.7027 34.0851 27.076C34.4958 27.4307 35.0371 27.608 35.7091 27.608Z" fill="white"/>
<path d="M43.8849 28V27.468L44.3049 27.328C44.6783 27.2347 44.9303 27.076 45.0609 26.852C45.2103 26.628 45.2849 26.3293 45.2849 25.956V17.752C45.2663 17.3413 45.1916 17.0333 45.0609 16.828C44.9303 16.604 44.6783 16.4547 44.3049 16.38L43.8849 16.268V15.764L48.4489 14.14L48.7849 14.448L49.0369 16.912V17.108C49.3169 16.5853 49.6716 16.1 50.1009 15.652C50.5303 15.204 50.9969 14.84 51.5009 14.56C52.0049 14.28 52.5089 14.14 53.0129 14.14C53.7223 14.14 54.2543 14.3267 54.6089 14.7C54.9636 15.0733 55.1409 15.5493 55.1409 16.128C55.1409 16.7627 54.9636 17.248 54.6089 17.584C54.2543 17.9013 53.8249 18.06 53.3209 18.06C52.5743 18.06 51.9303 17.724 51.3889 17.052L51.3329 16.996C51.1462 16.772 50.9316 16.6507 50.6889 16.632C50.4649 16.5947 50.2409 16.7067 50.0169 16.968C49.8303 17.1547 49.6529 17.3787 49.4849 17.64C49.3356 17.8827 49.1956 18.172 49.0649 18.508V25.844C49.0649 26.1987 49.1396 26.4973 49.2889 26.74C49.4383 26.964 49.6903 27.1227 50.0449 27.216L50.8849 27.468V28H43.8849Z" fill="white"/>
<path d="M62.6427 14.14C63.8187 14.14 64.8267 14.3827 65.6667 14.868C66.5067 15.3533 67.1507 16.0253 67.5987 16.884C68.0654 17.724 68.2987 18.6947 68.2987 19.796C68.2987 20.0387 68.2894 20.272 68.2707 20.496C68.2521 20.7013 68.2147 20.8973 68.1587 21.084H59.7307C59.7494 23.0067 60.1041 24.388 60.7947 25.228C61.5041 26.068 62.5307 26.488 63.8747 26.488C64.8081 26.488 65.5641 26.3387 66.1427 26.04C66.7214 25.7227 67.2534 25.284 67.7387 24.724L68.1867 25.144C67.6267 26.1707 66.8614 26.9733 65.8907 27.552C64.9387 28.112 63.8001 28.392 62.4747 28.392C61.1494 28.392 59.9827 28.112 58.9747 27.552C57.9667 26.992 57.1734 26.1893 56.5947 25.144C56.0347 24.08 55.7547 22.8107 55.7547 21.336C55.7547 19.8053 56.0814 18.508 56.7347 17.444C57.4067 16.38 58.2654 15.568 59.3107 15.008C60.3747 14.4293 61.4854 14.14 62.6427 14.14ZM62.5027 14.952C61.9614 14.952 61.4854 15.1107 61.0747 15.428C60.6827 15.7267 60.3654 16.268 60.1227 17.052C59.8987 17.8173 59.7681 18.9 59.7307 20.3H64.7427C64.9481 18.4147 64.8734 17.052 64.5187 16.212C64.1641 15.372 63.4921 14.952 62.5027 14.952Z" fill="white"/>
<path d="M69.7248 28V27.44L70.3408 27.272C70.6394 27.1787 70.8354 27.048 70.9288 26.88C71.0221 26.6933 71.0781 26.4507 71.0968 26.152V20.608C71.0968 19.992 71.0968 19.4693 71.0968 19.04C71.0968 18.6107 71.0874 18.1067 71.0688 17.528C71.0688 17.2107 71.0221 16.968 70.9288 16.8C70.8354 16.6133 70.6301 16.4827 70.3128 16.408L69.7248 16.268V15.764L74.2608 14.14L74.5968 14.448L74.7928 16.324C75.4461 15.7267 76.1741 15.2133 76.9768 14.784C77.7794 14.3547 78.6008 14.14 79.4408 14.14C80.3741 14.14 81.1021 14.3267 81.6248 14.7C82.1474 15.0733 82.5488 15.6427 82.8288 16.408C83.5381 15.6987 84.3221 15.148 85.1808 14.756C86.0394 14.3453 86.8888 14.14 87.7288 14.14C88.9981 14.14 89.9501 14.4573 90.5848 15.092C91.2194 15.7267 91.5368 16.7253 91.5368 18.088V26.18C91.5368 26.7773 91.7981 27.1507 92.3208 27.3L92.8528 27.44V28H86.5528V27.44L87.0568 27.3C87.5608 27.132 87.8128 26.7493 87.8128 26.152V17.948C87.8128 17.1453 87.6634 16.604 87.3648 16.324C87.0848 16.0253 86.6181 15.876 85.9648 15.876C85.4608 15.876 84.9848 15.9787 84.5368 16.184C84.0888 16.3893 83.5941 16.7067 83.0528 17.136C83.1648 17.696 83.2208 18.34 83.2208 19.068V26.18C83.2394 26.4973 83.2954 26.7493 83.3888 26.936C83.5008 27.104 83.7061 27.2253 84.0048 27.3L84.4808 27.44V28H78.1528V27.44L78.7408 27.272C79.0394 27.1787 79.2354 27.048 79.3288 26.88C79.4408 26.6933 79.4968 26.4507 79.4968 26.152V17.976C79.4968 17.2107 79.3568 16.6693 79.0768 16.352C78.7968 16.0347 78.3208 15.876 77.6488 15.876C76.7901 15.876 75.8661 16.2867 74.8768 17.108V26.18C74.8768 26.796 75.1381 27.1693 75.6608 27.3L76.1368 27.44V28H69.7248Z" fill="white"/>
<path d="M94.062 28V27.412L94.51 27.272C94.902 27.1227 95.1633 26.9267 95.294 26.684C95.4433 26.4413 95.518 26.1147 95.518 25.704C95.5367 24.64 95.546 23.576 95.546 22.512C95.546 21.4293 95.546 20.3467 95.546 19.264V18.256C95.546 17.1733 95.5367 16.1 95.518 15.036C95.518 13.9533 95.518 12.8707 95.518 11.788C95.518 11.34 95.4527 11.004 95.322 10.78C95.1913 10.5373 94.9207 10.3507 94.51 10.22L94.062 10.08V9.49199H101.958C104.198 9.49199 105.822 9.91199 106.83 10.752C107.838 11.5733 108.342 12.6187 108.342 13.888C108.342 14.8587 107.987 15.736 107.278 16.52C106.569 17.2853 105.327 17.836 103.554 18.172C105.607 18.396 107.091 18.928 108.006 19.768C108.921 20.608 109.378 21.6347 109.378 22.848C109.378 23.4453 109.247 24.052 108.986 24.668C108.725 25.2653 108.277 25.816 107.642 26.32C107.026 26.824 106.186 27.2347 105.122 27.552C104.058 27.8507 102.714 28 101.09 28H94.062ZM99.522 17.976H100.838C102.107 17.976 103.022 17.696 103.582 17.136C104.161 16.5573 104.45 15.5773 104.45 14.196C104.45 12.7587 104.189 11.7507 103.666 11.172C103.143 10.5933 102.322 10.304 101.202 10.304H99.522V17.976ZM99.522 27.188H101.062C102.462 27.188 103.507 26.8427 104.198 26.152C104.889 25.4613 105.234 24.3507 105.234 22.82C105.234 21.3453 104.898 20.3093 104.226 19.712C103.573 19.096 102.49 18.788 100.978 18.788H99.522V27.188Z" fill="white"/>
<path d="M117.768 28.392C116.386 28.392 115.173 28.1027 114.128 27.524C113.101 26.9453 112.298 26.124 111.72 25.06C111.16 23.996 110.88 22.7267 110.88 21.252C110.88 19.7773 111.178 18.508 111.776 17.444C112.392 16.38 113.213 15.568 114.24 15.008C115.285 14.4293 116.461 14.14 117.768 14.14C119.074 14.14 120.241 14.4293 121.268 15.008C122.313 15.568 123.134 16.38 123.732 17.444C124.348 18.4893 124.656 19.7587 124.656 21.252C124.656 22.7267 124.366 24.0053 123.788 25.088C123.228 26.152 122.434 26.9733 121.408 27.552C120.381 28.112 119.168 28.392 117.768 28.392ZM117.768 27.608C118.44 27.608 118.981 27.4307 119.392 27.076C119.821 26.7027 120.129 26.0587 120.316 25.144C120.502 24.2293 120.596 22.9507 120.596 21.308C120.596 19.6467 120.502 18.3587 120.316 17.444C120.129 16.5107 119.821 15.8667 119.392 15.512C118.981 15.1387 118.44 14.952 117.768 14.952C117.096 14.952 116.554 15.1387 116.144 15.512C115.733 15.8667 115.425 16.5107 115.22 17.444C115.033 18.3587 114.94 19.6467 114.94 21.308C114.94 22.9507 115.033 24.2293 115.22 25.144C115.425 26.0587 115.733 26.7027 116.144 27.076C116.554 27.4307 117.096 27.608 117.768 27.608Z" fill="white"/>
<path d="M133.08 28.392C131.699 28.392 130.486 28.1027 129.44 27.524C128.414 26.9453 127.611 26.124 127.032 25.06C126.472 23.996 126.192 22.7267 126.192 21.252C126.192 19.7773 126.491 18.508 127.088 17.444C127.704 16.38 128.526 15.568 129.552 15.008C130.598 14.4293 131.774 14.14 133.08 14.14C134.387 14.14 135.554 14.4293 136.58 15.008C137.626 15.568 138.447 16.38 139.044 17.444C139.66 18.4893 139.968 19.7587 139.968 21.252C139.968 22.7267 139.679 24.0053 139.1 25.088C138.54 26.152 137.747 26.9733 136.72 27.552C135.694 28.112 134.48 28.392 133.08 28.392ZM133.08 27.608C133.752 27.608 134.294 27.4307 134.704 27.076C135.134 26.7027 135.442 26.0587 135.628 25.144C135.815 24.2293 135.908 22.9507 135.908 21.308C135.908 19.6467 135.815 18.3587 135.628 17.444C135.442 16.5107 135.134 15.8667 134.704 15.512C134.294 15.1387 133.752 14.952 133.08 14.952C132.408 14.952 131.867 15.1387 131.456 15.512C131.046 15.8667 130.738 16.5107 130.532 17.444C130.346 18.3587 130.252 19.6467 130.252 21.308C130.252 22.9507 130.346 24.2293 130.532 25.144C130.738 26.0587 131.046 26.7027 131.456 27.076C131.867 27.4307 132.408 27.608 133.08 27.608Z" fill="white"/>
<path d="M141.175 28V27.468L141.595 27.328C142.23 27.1413 142.547 26.684 142.547 25.956V11.452C142.547 11.0787 142.473 10.7987 142.323 10.612C142.174 10.4067 141.913 10.2573 141.539 10.164L141.175 10.052V9.51999L146.075 8.34399L146.439 8.59599L146.327 12.544V25.956C146.327 26.7027 146.645 27.1693 147.279 27.356L147.671 27.468V28H141.175ZM151.423 28L146.327 21L151.311 16.408C151.554 16.2027 151.694 15.9787 151.731 15.736C151.769 15.4747 151.61 15.2973 151.255 15.204L150.807 15.092V14.56H155.175V15.092L154.363 15.288C153.953 15.4 153.617 15.5587 153.355 15.764C153.094 15.9507 152.786 16.2027 152.431 16.52L149.323 19.404L154.111 25.928C154.41 26.32 154.681 26.628 154.923 26.852C155.166 27.0573 155.493 27.2347 155.903 27.384L156.183 27.468V28H151.423Z" fill="white"/>
<path d="M161.85 28.392C160.954 28.392 160.142 28.2893 159.414 28.084C158.705 27.8973 158.023 27.6267 157.37 27.272V23.968H158.126L158.966 25.564C159.321 26.2547 159.722 26.768 160.17 27.104C160.637 27.44 161.225 27.608 161.934 27.608C162.811 27.608 163.511 27.4213 164.034 27.048C164.557 26.656 164.818 26.1333 164.818 25.48C164.818 24.8827 164.622 24.3973 164.23 24.024C163.838 23.6507 163.138 23.3053 162.13 22.988L160.898 22.596C159.797 22.26 158.919 21.756 158.266 21.084C157.631 20.3933 157.314 19.5347 157.314 18.508C157.314 17.7053 157.529 16.9773 157.958 16.324C158.387 15.652 159.013 15.12 159.834 14.728C160.655 14.336 161.654 14.14 162.83 14.14C163.595 14.14 164.295 14.2333 164.93 14.42C165.583 14.588 166.218 14.8307 166.834 15.148L166.666 18.144H165.938L165.07 16.548C164.771 15.9507 164.463 15.54 164.146 15.316C163.847 15.0733 163.381 14.952 162.746 14.952C162.074 14.952 161.477 15.1293 160.954 15.484C160.45 15.82 160.198 16.296 160.198 16.912C160.198 17.4907 160.413 17.9667 160.842 18.34C161.271 18.6947 161.962 19.0307 162.914 19.348L164.118 19.712C165.481 20.1413 166.451 20.7107 167.03 21.42C167.609 22.1293 167.898 22.9787 167.898 23.968C167.898 25.2933 167.366 26.3667 166.302 27.188C165.257 27.9907 163.773 28.392 161.85 28.392Z" fill="white"/>
<path d="M0.5 0.5H182.5V27.7929L171.793 38.5H0.5V0.5Z" stroke="white"/>
</svg>
