<svg width="162" height="37" viewBox="0 0 162 37" fill="none" xmlns="http://www.w3.org/2000/svg">
<path d="M0.5 0.5H161.5V25.7929L150.793 36.5H0.5V0.5Z" stroke="white"/>
<path d="M150.5 36V25.5H161" stroke="white"/>
<path d="M12 25.848V25.344L12.48 25.2C12.816 25.088 13.032 24.944 13.128 24.768C13.224 24.576 13.272 24.312 13.272 23.976V11.832C13.272 11.512 13.224 11.264 13.128 11.088C13.032 10.896 12.824 10.744 12.504 10.632L12 10.488V9.984H17.952V10.488L17.496 10.632C17.192 10.744 16.984 10.896 16.872 11.088C16.776 11.28 16.728 11.544 16.728 11.88V25.128H20.256C20.8 25.128 21.208 24.992 21.48 24.72C21.752 24.448 22.008 24.056 22.248 23.544L23.136 21.552H23.808L23.568 25.848H12Z" fill="white"/>
<path d="M30.9129 26.184C29.7289 26.184 28.6889 25.936 27.7929 25.44C26.9129 24.944 26.2249 24.24 25.7289 23.328C25.2489 22.416 25.0089 21.328 25.0089 20.064C25.0089 18.8 25.2649 17.712 25.7769 16.8C26.3049 15.888 27.0089 15.192 27.8889 14.712C28.7849 14.216 29.7929 13.968 30.9129 13.968C32.0329 13.968 33.0329 14.216 33.9129 14.712C34.8089 15.192 35.5129 15.888 36.0249 16.8C36.5529 17.696 36.8169 18.784 36.8169 20.064C36.8169 21.328 36.5689 22.424 36.0729 23.352C35.5929 24.264 34.9129 24.968 34.0329 25.464C33.1529 25.944 32.1129 26.184 30.9129 26.184ZM30.9129 25.512C31.4889 25.512 31.9529 25.36 32.3049 25.056C32.6729 24.736 32.9369 24.184 33.0969 23.4C33.2569 22.616 33.3369 21.52 33.3369 20.112C33.3369 18.688 33.2569 17.584 33.0969 16.8C32.9369 16 32.6729 15.448 32.3049 15.144C31.9529 14.824 31.4889 14.664 30.9129 14.664C30.3369 14.664 29.8729 14.824 29.5209 15.144C29.1689 15.448 28.9049 16 28.7289 16.8C28.5689 17.584 28.4889 18.688 28.4889 20.112C28.4889 21.52 28.5689 22.616 28.7289 23.4C28.9049 24.184 29.1689 24.736 29.5209 25.056C29.8729 25.36 30.3369 25.512 30.9129 25.512Z" fill="white"/>
<path d="M37.9207 25.848V25.392L38.2808 25.272C38.6008 25.192 38.8167 25.056 38.9287 24.864C39.0567 24.672 39.1208 24.416 39.1208 24.096V17.064C39.1048 16.712 39.0407 16.448 38.9287 16.272C38.8167 16.08 38.6008 15.952 38.2808 15.888L37.9207 15.792V15.36L41.8328 13.968L42.1208 14.232L42.3368 16.344V16.512C42.5768 16.064 42.8808 15.648 43.2488 15.264C43.6168 14.88 44.0167 14.568 44.4487 14.328C44.8807 14.088 45.3128 13.968 45.7448 13.968C46.3528 13.968 46.8088 14.128 47.1128 14.448C47.4168 14.768 47.5687 15.176 47.5687 15.672C47.5687 16.216 47.4168 16.632 47.1128 16.92C46.8088 17.192 46.4408 17.328 46.0088 17.328C45.3688 17.328 44.8167 17.04 44.3527 16.464L44.3047 16.416C44.1447 16.224 43.9608 16.12 43.7528 16.104C43.5608 16.072 43.3688 16.168 43.1768 16.392C43.0168 16.552 42.8648 16.744 42.7208 16.968C42.5928 17.176 42.4728 17.424 42.3608 17.712V24C42.3608 24.304 42.4247 24.56 42.5527 24.768C42.6807 24.96 42.8968 25.096 43.2008 25.176L43.9207 25.392V25.848H37.9207Z" fill="white"/>
<path d="M53.9989 13.968C55.0069 13.968 55.8709 14.176 56.5909 14.592C57.3109 15.008 57.8629 15.584 58.2469 16.32C58.6469 17.04 58.8469 17.872 58.8469 18.816C58.8469 19.024 58.8389 19.224 58.8229 19.416C58.8069 19.592 58.7749 19.76 58.7269 19.92H51.5029C51.5189 21.568 51.8229 22.752 52.4149 23.472C53.0229 24.192 53.9029 24.552 55.0549 24.552C55.8549 24.552 56.5029 24.424 56.9989 24.168C57.4949 23.896 57.9509 23.52 58.3669 23.04L58.7509 23.4C58.2709 24.28 57.6149 24.968 56.7829 25.464C55.9669 25.944 54.9909 26.184 53.8549 26.184C52.7189 26.184 51.7189 25.944 50.8549 25.464C49.9909 24.984 49.3109 24.296 48.8149 23.4C48.3349 22.488 48.0949 21.4 48.0949 20.136C48.0949 18.824 48.3749 17.712 48.9349 16.8C49.5109 15.888 50.2469 15.192 51.1429 14.712C52.0549 14.216 53.0069 13.968 53.9989 13.968ZM53.8789 14.664C53.4149 14.664 53.0069 14.8 52.6549 15.072C52.3189 15.328 52.0469 15.792 51.8389 16.464C51.6469 17.12 51.5349 18.048 51.5029 19.248H55.7989C55.9749 17.632 55.9109 16.464 55.6069 15.744C55.3029 15.024 54.7269 14.664 53.8789 14.664Z" fill="white"/>
<path d="M60.0692 25.848V25.368L60.5972 25.224C60.8532 25.144 61.0212 25.032 61.1012 24.888C61.1812 24.728 61.2292 24.52 61.2452 24.264V19.512C61.2452 18.984 61.2452 18.536 61.2452 18.168C61.2452 17.8 61.2372 17.368 61.2212 16.872C61.2212 16.6 61.1812 16.392 61.1012 16.248C61.0212 16.088 60.8452 15.976 60.5732 15.912L60.0692 15.792V15.36L63.9572 13.968L64.2452 14.232L64.4132 15.84C64.9732 15.328 65.5972 14.888 66.2852 14.52C66.9732 14.152 67.6772 13.968 68.3972 13.968C69.1972 13.968 69.8212 14.128 70.2692 14.448C70.7172 14.768 71.0612 15.256 71.3012 15.912C71.9092 15.304 72.5812 14.832 73.3172 14.496C74.0532 14.144 74.7812 13.968 75.5012 13.968C76.5892 13.968 77.4052 14.24 77.9492 14.784C78.4932 15.328 78.7652 16.184 78.7652 17.352V24.288C78.7652 24.8 78.9892 25.12 79.4372 25.248L79.8932 25.368V25.848H74.4932V25.368L74.9252 25.248C75.3572 25.104 75.5732 24.776 75.5732 24.264V17.232C75.5732 16.544 75.4452 16.08 75.1892 15.84C74.9492 15.584 74.5492 15.456 73.9892 15.456C73.5572 15.456 73.1492 15.544 72.7652 15.72C72.3812 15.896 71.9572 16.168 71.4932 16.536C71.5892 17.016 71.6372 17.568 71.6372 18.192V24.288C71.6532 24.56 71.7012 24.776 71.7812 24.936C71.8772 25.08 72.0532 25.184 72.3092 25.248L72.7172 25.368V25.848H67.2932V25.368L67.7972 25.224C68.0532 25.144 68.2212 25.032 68.3012 24.888C68.3972 24.728 68.4452 24.52 68.4452 24.264V17.256C68.4452 16.6 68.3252 16.136 68.0852 15.864C67.8452 15.592 67.4372 15.456 66.8612 15.456C66.1252 15.456 65.3332 15.808 64.4852 16.512V24.288C64.4852 24.816 64.7092 25.136 65.1572 25.248L65.5652 25.368V25.848H60.0692Z" fill="white"/>
<path d="M80.9297 25.848V25.344L81.3137 25.224C81.6497 25.096 81.8737 24.928 81.9857 24.72C82.1137 24.512 82.1777 24.232 82.1777 23.88C82.1937 22.968 82.2017 22.056 82.2017 21.144C82.2017 20.216 82.2017 19.288 82.2017 18.36V17.496C82.2017 16.568 82.1937 15.648 82.1777 14.736C82.1777 13.808 82.1777 12.88 82.1777 11.952C82.1777 11.568 82.1217 11.28 82.0097 11.088C81.8977 10.88 81.6657 10.72 81.3137 10.608L80.9297 10.488V9.984H87.6977C89.6177 9.984 91.0097 10.344 91.8737 11.064C92.7377 11.768 93.1697 12.664 93.1697 13.752C93.1697 14.584 92.8657 15.336 92.2577 16.008C91.6497 16.664 90.5857 17.136 89.0657 17.424C90.8257 17.616 92.0977 18.072 92.8817 18.792C93.6657 19.512 94.0577 20.392 94.0577 21.432C94.0577 21.944 93.9457 22.464 93.7217 22.992C93.4977 23.504 93.1137 23.976 92.5697 24.408C92.0417 24.84 91.3217 25.192 90.4097 25.464C89.4977 25.72 88.3457 25.848 86.9537 25.848H80.9297ZM85.6097 17.256H86.7377C87.8257 17.256 88.6097 17.016 89.0897 16.536C89.5857 16.04 89.8337 15.2 89.8337 14.016C89.8337 12.784 89.6097 11.92 89.1617 11.424C88.7137 10.928 88.0097 10.68 87.0497 10.68H85.6097V17.256ZM85.6097 25.152H86.9297C88.1297 25.152 89.0257 24.856 89.6177 24.264C90.2097 23.672 90.5057 22.72 90.5057 21.408C90.5057 20.144 90.2177 19.256 89.6417 18.744C89.0817 18.216 88.1537 17.952 86.8577 17.952H85.6097V25.152Z" fill="white"/>
<path d="M101.249 26.184C100.065 26.184 99.0249 25.936 98.1289 25.44C97.2489 24.944 96.5609 24.24 96.0649 23.328C95.5849 22.416 95.3449 21.328 95.3449 20.064C95.3449 18.8 95.6009 17.712 96.1129 16.8C96.6409 15.888 97.3449 15.192 98.2249 14.712C99.1209 14.216 100.129 13.968 101.249 13.968C102.369 13.968 103.369 14.216 104.249 14.712C105.145 15.192 105.849 15.888 106.361 16.8C106.889 17.696 107.153 18.784 107.153 20.064C107.153 21.328 106.905 22.424 106.409 23.352C105.929 24.264 105.249 24.968 104.369 25.464C103.489 25.944 102.449 26.184 101.249 26.184ZM101.249 25.512C101.825 25.512 102.289 25.36 102.641 25.056C103.009 24.736 103.273 24.184 103.433 23.4C103.593 22.616 103.673 21.52 103.673 20.112C103.673 18.688 103.593 17.584 103.433 16.8C103.273 16 103.009 15.448 102.641 15.144C102.289 14.824 101.825 14.664 101.249 14.664C100.673 14.664 100.209 14.824 99.8569 15.144C99.5049 15.448 99.2409 16 99.0649 16.8C98.9049 17.584 98.8249 18.688 98.8249 20.112C98.8249 21.52 98.9049 22.616 99.0649 23.4C99.2409 24.184 99.5049 24.736 99.8569 25.056C100.209 25.36 100.673 25.512 101.249 25.512Z" fill="white"/>
<path d="M114.374 26.184C113.19 26.184 112.15 25.936 111.254 25.44C110.374 24.944 109.686 24.24 109.19 23.328C108.71 22.416 108.47 21.328 108.47 20.064C108.47 18.8 108.726 17.712 109.238 16.8C109.766 15.888 110.47 15.192 111.35 14.712C112.246 14.216 113.254 13.968 114.374 13.968C115.494 13.968 116.494 14.216 117.374 14.712C118.27 15.192 118.974 15.888 119.486 16.8C120.014 17.696 120.278 18.784 120.278 20.064C120.278 21.328 120.03 22.424 119.534 23.352C119.054 24.264 118.374 24.968 117.494 25.464C116.614 25.944 115.574 26.184 114.374 26.184ZM114.374 25.512C114.95 25.512 115.414 25.36 115.766 25.056C116.134 24.736 116.398 24.184 116.558 23.4C116.718 22.616 116.798 21.52 116.798 20.112C116.798 18.688 116.718 17.584 116.558 16.8C116.398 16 116.134 15.448 115.766 15.144C115.414 14.824 114.95 14.664 114.374 14.664C113.798 14.664 113.334 14.824 112.982 15.144C112.63 15.448 112.366 16 112.19 16.8C112.03 17.584 111.95 18.688 111.95 20.112C111.95 21.52 112.03 22.616 112.19 23.4C112.366 24.184 112.63 24.736 112.982 25.056C113.334 25.36 113.798 25.512 114.374 25.512Z" fill="white"/>
<path d="M121.312 25.848V25.392L121.673 25.272C122.217 25.112 122.489 24.72 122.489 24.096V11.664C122.489 11.344 122.425 11.104 122.297 10.944C122.169 10.768 121.944 10.64 121.624 10.56L121.312 10.464V10.008L125.512 9L125.825 9.216L125.729 12.6V24.096C125.729 24.736 126.001 25.136 126.545 25.296L126.881 25.392V25.848H121.312ZM130.097 25.848L125.729 19.848L130.001 15.912C130.209 15.736 130.328 15.544 130.36 15.336C130.392 15.112 130.256 14.96 129.952 14.88L129.568 14.784V14.328H133.312V14.784L132.617 14.952C132.265 15.048 131.977 15.184 131.753 15.36C131.529 15.52 131.265 15.736 130.961 16.008L128.297 18.48L132.4 24.072C132.656 24.408 132.888 24.672 133.096 24.864C133.304 25.04 133.585 25.192 133.937 25.32L134.176 25.392V25.848H130.097Z" fill="white"/>
<path d="M139.034 26.184C138.266 26.184 137.57 26.096 136.946 25.92C136.338 25.76 135.754 25.528 135.194 25.224V22.392H135.842L136.562 23.76C136.866 24.352 137.21 24.792 137.594 25.08C137.994 25.368 138.498 25.512 139.106 25.512C139.858 25.512 140.458 25.352 140.906 25.032C141.354 24.696 141.578 24.248 141.578 23.688C141.578 23.176 141.41 22.76 141.074 22.44C140.738 22.12 140.138 21.824 139.274 21.552L138.218 21.216C137.274 20.928 136.522 20.496 135.962 19.92C135.418 19.328 135.146 18.592 135.146 17.712C135.146 17.024 135.33 16.4 135.698 15.84C136.066 15.264 136.602 14.808 137.306 14.472C138.01 14.136 138.866 13.968 139.874 13.968C140.53 13.968 141.13 14.048 141.674 14.208C142.234 14.352 142.778 14.56 143.306 14.832L143.162 17.4H142.538L141.794 16.032C141.538 15.52 141.274 15.168 141.002 14.976C140.746 14.768 140.346 14.664 139.802 14.664C139.226 14.664 138.714 14.816 138.266 15.12C137.834 15.408 137.618 15.816 137.618 16.344C137.618 16.84 137.802 17.248 138.17 17.568C138.538 17.872 139.13 18.16 139.946 18.432L140.978 18.744C142.146 19.112 142.978 19.6 143.474 20.208C143.97 20.816 144.218 21.544 144.218 22.392C144.218 23.528 143.762 24.448 142.85 25.152C141.954 25.84 140.682 26.184 139.034 26.184Z" fill="white"/>
</svg>
