<svg width="183" height="39" viewBox="0 0 183 39" fill="none" xmlns="http://www.w3.org/2000/svg"><path d="M171.5 38V27.5H182" stroke="#fff"/><path d="M13.644 28v-.588l.56-.168c.392-.1307.644-.2987.756-.504.112-.224.168-.532.168-.924V11.648c0-.3733-.056-.6627-.168-.868-.112-.224-.3546-.4013-.728-.532l-.588-.168v-.588h6.944v.588l-.532.168c-.3546.1307-.5973.308-.728.532-.112.224-.168.532-.168.924V27.16h4.116c.6347 0 1.1107-.1587 1.428-.476.3174-.3173.616-.7747.896-1.372l1.036-2.324h.784L27.14 28H13.644zM35.7091 28.392c-1.3813 0-2.5946-.2893-3.64-.868-1.0266-.5787-1.8293-1.4-2.408-2.464-.56-1.064-.84-2.3333-.84-3.808s.2987-2.744.896-3.808c.616-1.064 1.4374-1.876 2.464-2.436 1.0454-.5787 2.2214-.868 3.528-.868 1.3067 0 2.4734.2893 3.5.868 1.0454.56 1.8667 1.372 2.464 2.436.616 1.0453.924 2.3147.924 3.808 0 1.4747-.2893 2.7533-.868 3.836-.56 1.064-1.3533 1.8853-2.38 2.464-1.0266.56-2.24.84-3.64.84zm0-.784c.672 0 1.2134-.1773 1.624-.532.4294-.3733.7374-1.0173.924-1.932.1867-.9147.28-2.1933.28-3.836 0-1.6613-.0933-2.9493-.28-3.864-.1866-.9333-.4946-1.5773-.924-1.932-.4106-.3733-.952-.56-1.624-.56-.672 0-1.2133.1867-1.624.56-.4106.3547-.7186.9987-.924 1.932-.1866.9147-.28 2.2027-.28 3.864 0 1.6427.0934 2.9213.28 3.836.2054.9147.5134 1.5587.924 1.932.4107.3547.952.532 1.624.532zM43.8849 28v-.532l.42-.14c.3734-.0933.6254-.252.756-.476.1494-.224.224-.5227.224-.896v-8.204c-.0186-.4107-.0933-.7187-.224-.924-.1306-.224-.3826-.3733-.756-.448l-.42-.112v-.504l4.564-1.624.336.308.252 2.464v.196c.28-.5227.6347-1.008 1.064-1.456.4294-.448.896-.812 1.4-1.092.504-.28 1.008-.42 1.512-.42.7094 0 1.2414.1867 1.596.56.3547.3733.532.8493.532 1.428 0 .6347-.1773 1.12-.532 1.456-.3546.3173-.784.476-1.288.476-.7466 0-1.3906-.336-1.932-1.008l-.056-.056c-.1867-.224-.4013-.3453-.644-.364-.224-.0373-.448.0747-.672.336-.1866.1867-.364.4107-.532.672-.1493.2427-.2893.532-.42.868v7.336c0 .3547.0747.6533.224.896.1494.224.4014.3827.756.476l.84.252V28h-7zM62.6427 14.14c1.176 0 2.184.2427 3.024.728.84.4853 1.484 1.1573 1.932 2.016.4667.84.7 1.8107.7 2.912 0 .2427-.0093.476-.028.7a2.9764 2.9764 0 01-.112.588h-8.428c.0187 1.9227.3734 3.304 1.064 4.144.7094.84 1.736 1.26 3.08 1.26.9334 0 1.6894-.1493 2.268-.448.5787-.3173 1.1107-.756 1.596-1.316l.448.42c-.56 1.0267-1.3253 1.8293-2.296 2.408-.952.56-2.0906.84-3.416.84-1.3253 0-2.492-.28-3.5-.84-1.008-.56-1.8013-1.3627-2.38-2.408-.56-1.064-.84-2.3333-.84-3.808 0-1.5307.3267-2.828.98-3.892.672-1.064 1.5307-1.876 2.576-2.436 1.064-.5787 2.1747-.868 3.332-.868zm-.14.812c-.5413 0-1.0173.1587-1.428.476-.392.2987-.7093.84-.952 1.624-.224.7653-.3546 1.848-.392 3.248h5.012c.2054-1.8853.1307-3.248-.224-4.088-.3546-.84-1.0266-1.26-2.016-1.26zM69.7248 28v-.56l.616-.168c.2986-.0933.4946-.224.588-.392.0933-.1867.1493-.4293.168-.728v-5.544-1.568c0-.4293-.0094-.9333-.028-1.512 0-.3173-.0467-.56-.14-.728-.0934-.1867-.2987-.3173-.616-.392l-.588-.14v-.504l4.536-1.624.336.308.196 1.876c.6533-.5973 1.3813-1.1107 2.184-1.54.8026-.4293 1.624-.644 2.464-.644.9333 0 1.6613.1867 2.184.56.5226.3733.924.9427 1.204 1.708.7093-.7093 1.4933-1.26 2.352-1.652.8586-.4107 1.708-.616 2.548-.616 1.2693 0 2.2213.3173 2.856.952.6346.6347.952 1.6333.952 2.996v8.092c0 .5973.2613.9707.784 1.12l.532.14V28h-6.3v-.56l.504-.14c.504-.168.756-.5507.756-1.148v-8.204c0-.8027-.1494-1.344-.448-1.624-.28-.2987-.7467-.448-1.4-.448-.504 0-.98.1027-1.428.308-.448.2053-.9427.5227-1.484.952.112.56.168 1.204.168 1.932v7.112c.0186.3173.0746.5693.168.756.112.168.3173.2893.616.364l.476.14V28h-6.328v-.56l.588-.168c.2986-.0933.4946-.224.588-.392.112-.1867.168-.4293.168-.728v-8.176c0-.7653-.14-1.3067-.42-1.624-.28-.3173-.756-.476-1.428-.476-.8587 0-1.7827.4107-2.772 1.232v9.072c0 .616.2613.9893.784 1.12l.476.14V28h-6.412zM94.062 28v-.588l.448-.14c.392-.1493.6533-.3453.784-.588.1493-.2427.224-.5693.224-.98.0187-1.064.028-2.128.028-3.192v-4.256c0-1.0827-.0093-2.156-.028-3.22v-3.248c0-.448-.0653-.784-.196-1.008-.1307-.2427-.4013-.4293-.812-.56l-.448-.14v-.588h7.896c2.24 0 3.864.42 4.872 1.26 1.008.8213 1.512 1.8667 1.512 3.136 0 .9707-.355 1.848-1.064 2.632-.709.7653-1.951 1.316-3.724 1.652 2.053.224 3.537.756 4.452 1.596.915.84 1.372 1.8667 1.372 3.08 0 .5973-.131 1.204-.392 1.82-.261.5973-.709 1.148-1.344 1.652-.616.504-1.456.9147-2.52 1.232-1.064.2987-2.408.448-4.032.448h-7.028zm5.46-10.024h1.316c1.269 0 2.184-.28 2.744-.84.579-.5787.868-1.5587.868-2.94 0-1.4373-.261-2.4453-.784-3.024s-1.344-.868-2.464-.868h-1.68v7.672zm0 9.212h1.54c1.4 0 2.445-.3453 3.136-1.036.691-.6907 1.036-1.8013 1.036-3.332 0-1.4747-.336-2.5107-1.008-3.108-.653-.616-1.736-.924-3.248-.924h-1.456v8.4zM117.768 28.392c-1.382 0-2.595-.2893-3.64-.868-1.027-.5787-1.83-1.4-2.408-2.464-.56-1.064-.84-2.3333-.84-3.808s.298-2.744.896-3.808c.616-1.064 1.437-1.876 2.464-2.436 1.045-.5787 2.221-.868 3.528-.868 1.306 0 2.473.2893 3.5.868 1.045.56 1.866 1.372 2.464 2.436.616 1.0453.924 2.3147.924 3.808 0 1.4747-.29 2.7533-.868 3.836-.56 1.064-1.354 1.8853-2.38 2.464-1.027.56-2.24.84-3.64.84zm0-.784c.672 0 1.213-.1773 1.624-.532.429-.3733.737-1.0173.924-1.932.186-.9147.28-2.1933.28-3.836 0-1.6613-.094-2.9493-.28-3.864-.187-.9333-.495-1.5773-.924-1.932-.411-.3733-.952-.56-1.624-.56-.672 0-1.214.1867-1.624.56-.411.3547-.719.9987-.924 1.932-.187.9147-.28 2.2027-.28 3.864 0 1.6427.093 2.9213.28 3.836.205.9147.513 1.5587.924 1.932.41.3547.952.532 1.624.532zM133.08 28.392c-1.381 0-2.594-.2893-3.64-.868-1.026-.5787-1.829-1.4-2.408-2.464-.56-1.064-.84-2.3333-.84-3.808s.299-2.744.896-3.808c.616-1.064 1.438-1.876 2.464-2.436 1.046-.5787 2.222-.868 3.528-.868 1.307 0 2.474.2893 3.5.868 1.046.56 1.867 1.372 2.464 2.436.616 1.0453.924 2.3147.924 3.808 0 1.4747-.289 2.7533-.868 3.836-.56 1.064-1.353 1.8853-2.38 2.464-1.026.56-2.24.84-3.64.84zm0-.784c.672 0 1.214-.1773 1.624-.532.43-.3733.738-1.0173.924-1.932.187-.9147.28-2.1933.28-3.836 0-1.6613-.093-2.9493-.28-3.864-.186-.9333-.494-1.5773-.924-1.932-.41-.3733-.952-.56-1.624-.56-.672 0-1.213.1867-1.624.56-.41.3547-.718.9987-.924 1.932-.186.9147-.28 2.2027-.28 3.864 0 1.6427.094 2.9213.28 3.836.206.9147.514 1.5587.924 1.932.411.3547.952.532 1.624.532zM141.175 28v-.532l.42-.14c.635-.1867.952-.644.952-1.372V11.452c0-.3733-.074-.6533-.224-.84-.149-.2053-.41-.3547-.784-.448l-.364-.112V9.52l4.9-1.176.364.252-.112 3.948v13.412c0 .7467.318 1.2133.952 1.4l.392.112V28h-6.496zm10.248 0l-5.096-7 4.984-4.592c.243-.2053.383-.4293.42-.672.038-.2613-.121-.4387-.476-.532l-.448-.112v-.532h4.368v.532l-.812.196c-.41.112-.746.2707-1.008.476-.261.1867-.569.4387-.924.756l-3.108 2.884 4.788 6.524c.299.392.57.7.812.924.243.2053.57.3827.98.532l.28.084V28h-4.76zM161.85 28.392c-.896 0-1.708-.1027-2.436-.308a9.1528 9.1528 0 01-2.044-.812v-3.304h.756l.84 1.596c.355.6907.756 1.204 1.204 1.54.467.336 1.055.504 1.764.504.877 0 1.577-.1867 2.1-.56.523-.392.784-.9147.784-1.568 0-.5973-.196-1.0827-.588-1.456-.392-.3733-1.092-.7187-2.1-1.036l-1.232-.392c-1.101-.336-1.979-.84-2.632-1.512-.635-.6907-.952-1.5493-.952-2.576 0-.8027.215-1.5307.644-2.184.429-.672 1.055-1.204 1.876-1.596.821-.392 1.82-.588 2.996-.588.765 0 1.465.0933 2.1.28.653.168 1.288.4107 1.904.728l-.168 2.996h-.728l-.868-1.596c-.299-.5973-.607-1.008-.924-1.232-.299-.2427-.765-.364-1.4-.364-.672 0-1.269.1773-1.792.532-.504.336-.756.812-.756 1.428 0 .5787.215 1.0547.644 1.428.429.3547 1.12.6907 2.072 1.008l1.204.364c1.363.4293 2.333.9987 2.912 1.708.579.7093.868 1.5587.868 2.548 0 1.3253-.532 2.3987-1.596 3.22-1.045.8027-2.529 1.204-4.452 1.204z" fill="#fff"/><path d="M.5.5h182v27.2929L171.793 38.5H.5V.5z" stroke="#fff"/></svg>